<svg width="18" height="20" viewBox="0 0 18 20" fill="none" xmlns="http://www.w3.org/2000/svg">
<path d="M12.25 9C12.25 9.41421 12.5858 9.75 13 9.75C13.4142 9.75 13.75 9.41421 13.75 9H12.25ZM4.25 9C4.25 9.41421 4.58579 9.75 5 9.75C5.41421 9.75 5.75 9.41421 5.75 9H4.25ZM12.25 5V9H13.75V5H12.25ZM5.75 9V5H4.25V9H5.75ZM9 1.75C10.7949 1.75 12.25 3.20507 12.25 5H13.75C13.75 2.37665 11.6234 0.25 9 0.25V1.75ZM9 0.25C6.37665 0.25 4.25 2.37665 4.25 5H5.75C5.75 3.20507 7.20507 1.75 9 1.75V0.25Z" fill="white"/>
<rect x="1" y="6" width="16" height="13" rx="1" stroke="white" stroke-width="1.5"/>
</svg>
