<svg width="19" height="20" viewBox="0 0 19 20" fill="none" xmlns="http://www.w3.org/2000/svg">
<path d="M12.3333 9C12.3333 9.55229 12.781 10 13.3333 10C13.8855 10 14.3333 9.55229 14.3333 9H12.3333ZM4.33325 9C4.33325 9.55229 4.78097 10 5.33325 10C5.88554 10 6.33325 9.55229 6.33325 9H4.33325ZM12.3333 5V9H14.3333V5H12.3333ZM6.33325 9V5H4.33325V9H6.33325ZM9.33325 2C10.9901 2 12.3333 3.34315 12.3333 5H14.3333C14.3333 2.23858 12.0947 0 9.33325 0V2ZM9.33325 0C6.57183 0 4.33325 2.23858 4.33325 5H6.33325C6.33325 3.34315 7.6764 2 9.33325 2V0Z" fill="#27262C"/>
<rect x="1.33325" y="6" width="16" height="13" rx="1" stroke="#27262C" stroke-width="2"/>
</svg>
