<svg width="20" height="20" viewBox="0 0 20 20" fill="none" xmlns="http://www.w3.org/2000/svg">
<path d="M5.92449 0H2.53852C1.13626 0 0 1.14585 0 2.55996V5.97452C0 7.38864 1.13626 8.53449 2.53852 8.53449H5.92449C7.32676 8.53449 8.46301 7.38864 8.46301 5.97452V2.55996C8.46301 1.14585 7.32676 0 5.92449 0Z" fill="#0049FF"/>
<path d="M17.4614 0H14.0754C12.6731 0 11.5369 1.14585 11.5369 2.55996V5.97452C11.5369 7.38864 12.6731 8.53449 14.0754 8.53449H17.4614C18.8636 8.53449 19.9999 7.38864 19.9999 5.97452V2.55996C19.9999 1.14585 18.8636 0 17.4614 0Z" fill="#0049FF"/>
<path d="M2.53852 11.4655H5.92449C7.32676 11.4655 8.46301 12.6113 8.46301 14.0254V17.44C8.46301 18.8531 7.32676 19.9999 5.92449 19.9999H2.53852C1.13626 19.9999 0 18.8531 0 17.44V14.0254C0 12.6113 1.13626 11.4655 2.53852 11.4655Z" fill="#0049FF"/>
<path d="M17.4614 11.4655H14.0754C12.6731 11.4655 11.5369 12.6113 11.5369 14.0254V17.44C11.5369 18.8531 12.6731 19.9999 14.0754 19.9999H17.4614C18.8636 19.9999 19.9999 18.8531 19.9999 17.44V14.0254C19.9999 12.6113 18.8636 11.4655 17.4614 11.4655Z" fill="#0049FF"/>
</svg>
