<svg width="24" height="24" viewBox="0 0 24 24" fill="none" xmlns="http://www.w3.org/2000/svg">
<path d="M4.92879 3.51469C4.53826 3.12417 3.9051 3.12417 3.51457 3.51469C3.12405 3.90522 3.12405 4.53838 3.51457 4.92891L4.92879 3.51469ZM19.0709 20.4853C19.4614 20.8758 20.0946 20.8758 20.4851 20.4853C20.8757 20.0947 20.8757 19.4616 20.4851 19.071L19.0709 20.4853ZM3.51457 4.92891L19.0709 20.4853L20.4851 19.071L4.92879 3.51469L3.51457 4.92891Z" fill="#1A1A1A"/>
<path d="M3.51457 19.0711C3.12405 19.4616 3.12405 20.0948 3.51457 20.4853C3.9051 20.8758 4.53826 20.8758 4.92879 20.4853L3.51457 19.0711ZM20.4851 4.92896C20.8757 4.53843 20.8757 3.90527 20.4851 3.51474C20.0946 3.12422 19.4614 3.12422 19.0709 3.51474L20.4851 4.92896ZM4.92879 20.4853L20.4851 4.92896L19.0709 3.51474L3.51457 19.0711L4.92879 20.4853Z" fill="#1A1A1A"/>
</svg>
