<svg width="24" height="24" viewBox="0 0 24 24" fill="none" xmlns="http://www.w3.org/2000/svg">
<path d="M14 5C13.4477 5 13 5.44772 13 6C13 6.55228 13.4477 7 14 7L14 5ZM19 7C19.5523 7 20 6.55229 20 6C20 5.44772 19.5523 5 19 5L19 7ZM14 7L19 7L19 5L14 5L14 7Z" fill="#26272C"/>
<path d="M5 5C4.44772 5 4 5.44772 4 6C4 6.55228 4.44772 7 5 7L5 5ZM10 7C10.5523 7 11 6.55228 11 6C11 5.44771 10.5523 5 10 5L10 7ZM5 7L10 7L10 5L5 5L5 7Z" fill="#26272C"/>
<circle cx="12" cy="6" r="2" stroke="#26272C" stroke-width="2"/>
<path d="M6.5 10L10 20H3L6.5 10Z" stroke="#26272C" stroke-width="2" stroke-linejoin="round"/>
<path d="M17.5 10L21 20H14L17.5 10Z" stroke="#26272C" stroke-width="2" stroke-linejoin="round"/>
</svg>
