<svg width="24" height="24" viewBox="0 0 24 24" fill="none" xmlns="http://www.w3.org/2000/svg">
<path d="M11.9999 21L11.3473 21.7577C11.7224 22.0808 12.2775 22.0808 12.6526 21.7576L11.9999 21ZM11.9999 8.25934L11.1207 8.73566C11.2955 9.05833 11.633 9.25934 11.9999 9.25934C12.3669 9.25934 12.7044 9.05833 12.8792 8.73566L11.9999 8.25934ZM16.4999 5.00002L16.4999 4.00002H16.4998L16.4999 5.00002ZM7.49987 5L7.49982 4L7.49987 5ZM20 10.0002C20 10.7388 19.695 11.6054 19.0944 12.5783C18.4998 13.5415 17.6647 14.5302 16.7226 15.4933C14.8246 17.4336 12.6505 19.1197 11.3473 20.2424L12.6526 21.7576C13.8493 20.7267 16.1753 18.913 18.1523 16.8918C19.1478 15.8741 20.0939 14.7666 20.7962 13.6289C21.4925 12.5009 22 11.2617 22 10.0002H20ZM12.6526 20.2423C11.3494 19.1197 9.17525 17.4336 7.27733 15.4933C6.33528 14.5302 5.50016 13.5415 4.90561 12.5784C4.30504 11.6054 4 10.7388 4 10.0002H2C2 11.2617 2.50745 12.5009 3.20373 13.6289C3.90604 14.7666 4.85215 15.8741 5.84759 16.8918C7.82463 18.913 10.1505 20.7267 11.3473 21.7577L12.6526 20.2423ZM12.8792 8.73566C13.7565 7.1163 15.0466 6.00018 16.5 6.00002L16.4998 4.00002C13.9532 4.0003 12.1342 5.91212 11.1207 7.78302L12.8792 8.73566ZM7.49992 6C8.95254 5.99993 10.2477 7.12419 11.1207 8.73566L12.8792 7.78302C11.8711 5.92196 10.0472 3.99987 7.49982 4L7.49992 6ZM4 10.0002C4 7.48139 5.62074 6.0001 7.49992 6L7.49982 4C4.37905 4.00016 2 6.51909 2 10.0002H4ZM16.4999 6.00002C18.3791 6.00011 20 7.48146 20 10.0002H22C22 6.51903 19.6207 4.00016 16.4999 4.00002L16.4999 6.00002Z" fill="#26272C"/>
</svg>
