<svg width="20" height="18" viewBox="0 0 20 18" fill="none" xmlns="http://www.w3.org/2000/svg">
<path d="M9.99995 17L9.3473 17.7577C9.72241 18.0808 10.2775 18.0808 10.6526 17.7576L9.99995 17ZM9.99995 4.25934L9.12067 4.73566C9.29547 5.05833 9.63297 5.25934 9.99995 5.25934C10.3669 5.25934 10.7044 5.05833 10.8792 4.73566L9.99995 4.25934ZM14.4999 1.00002L14.4999 1.99676e-05H14.4998L14.4999 1.00002ZM5.49987 1L5.49982 0L5.49987 1ZM18 6.00024C18 6.73876 17.695 7.60539 17.0944 8.57834C16.4998 9.54154 15.6647 10.5302 14.7226 11.4933C12.8246 13.4336 10.6505 15.1197 9.34728 16.2424L10.6526 17.7576C11.8493 16.7267 14.1753 14.913 16.1523 12.8918C17.1478 11.8741 18.0939 10.7666 18.7962 9.62888C19.4925 8.50087 20 7.26172 20 6.00024H18ZM10.6526 16.2423C9.34936 15.1197 7.17525 13.4336 5.27733 11.4933C4.33528 10.5302 3.50016 9.54155 2.90561 8.57835C2.30504 7.6054 2 6.73877 2 6.00024H0C0 7.26172 0.507446 8.50086 1.20373 9.62887C1.90604 10.7666 2.85215 11.8741 3.84759 12.8918C5.82463 14.913 8.15049 16.7267 9.3473 17.7577L10.6526 16.2423ZM10.8792 4.73566C11.7565 3.1163 13.0466 2.00018 14.5 2.00002L14.4998 1.99676e-05C11.9532 0.000302076 10.1342 1.91212 9.12067 3.78302L10.8792 4.73566ZM5.49992 2C6.95254 1.99993 8.24772 3.12419 9.12067 4.73566L10.8792 3.78302C9.87105 1.92196 8.04725 -0.000130057 5.49982 0L5.49992 2ZM2 6.00024C2 3.48139 3.62074 2.0001 5.49992 2L5.49982 0C2.37905 0.000159383 0 2.51909 0 6.00024H2ZM14.4999 2.00002C16.3791 2.00011 18 3.48146 18 6.00024H20C20 2.51903 17.6207 0.000162125 14.4999 1.99676e-05L14.4999 2.00002Z" fill="#BDC0C7"/>
</svg>
