<svg width="25" height="24" viewBox="0 0 25 24" fill="none" xmlns="http://www.w3.org/2000/svg">
<path d="M16.4768 12C16.4768 9.75 14.6768 7.95 12.4268 7.95C10.1768 7.95 8.37676 9.75 8.37676 12C8.37676 14.25 10.1768 16.05 12.4268 16.05C14.6768 16.05 16.4768 14.25 16.4768 12ZM18.5768 12C18.5768 15.45 15.8768 18.15 12.4268 18.15C8.97676 18.15 6.27676 15.45 6.27676 12C6.27676 8.55 8.97676 5.85 12.4268 5.85C15.8768 5.85 18.5768 8.55 18.5768 12ZM20.2268 5.55C20.2268 6.45 19.6268 7.05 18.7268 7.05C17.8268 7.05 17.2268 6.45 17.2268 5.55C17.2268 4.65 17.8268 4.05 18.7268 4.05C19.6268 4.05 20.2268 4.8 20.2268 5.55ZM12.4268 2.1C10.6268 2.1 6.87676 1.95 5.37676 2.55C4.32676 3 3.42676 3.9 3.12676 4.95C2.52676 6.45 2.67676 10.2 2.67676 12C2.67676 13.8 2.52676 17.55 3.12676 19.05C3.42676 20.1 4.32676 21 5.37676 21.3C6.87676 21.9 10.7768 21.75 12.4268 21.75C14.0768 21.75 17.9768 21.9 19.4768 21.3C20.5268 20.85 21.2768 20.1 21.7268 19.05C22.3268 17.4 22.1768 13.65 22.1768 12C22.1768 10.35 22.3268 6.45 21.7268 4.95C21.4268 3.9 20.5268 3 19.4768 2.7C17.9768 1.95 14.2268 2.1 12.4268 2.1ZM24.4268 12V16.95C24.4268 18.75 23.8268 20.55 22.4768 22.05C21.1268 23.4 19.3268 24 17.3768 24H7.47676C5.67676 24 3.87676 23.4 2.37676 22.05C1.17676 20.7 0.426758 18.9 0.426758 16.95V12V7.05C0.426758 5.1 1.17676 3.3 2.37676 1.95C3.87676 0.75 5.67676 0 7.47676 0H17.3768C19.1768 0 20.9768 0.6 22.4768 1.95C23.6768 3.3 24.4268 5.1 24.4268 7.05V12Z" fill="#7D828C"/>
</svg>
