<svg width="34" height="32" viewBox="0 0 34 32" fill="none" xmlns="http://www.w3.org/2000/svg">
<path fill-rule="evenodd" clip-rule="evenodd" d="M10.2867 27.7807C10.3308 28.5303 10.3719 29.2585 10.5486 29.9838C10.6597 30.445 11.2262 31.4357 11.8064 31.1186C12.4018 30.7924 12.1079 27.403 12.0393 26.7065C11.4257 20.4525 10.0522 23.7753 10.2867 27.7807ZM14.6661 26.3409C14.7742 31.0413 14.5747 32.6905 19.8677 31.7437C22.1945 31.328 22.1457 30.6058 21.9767 28.4119C21.8488 26.7566 21.6143 25.1104 21.3676 23.4779C20.9306 20.5891 20.7098 16.6716 16.5695 17.1951C13.9534 17.5258 14.6219 24.4004 14.6661 26.3409ZM7.54119 28.9991C8.19748 27.2467 8.29037 25.1544 8.1381 23.2897C7.98582 21.416 7.14832 19.4208 7.37521 17.676C7.48941 16.796 7.85944 15.9767 8.0178 15.0952C8.19596 14.1075 8.15028 13.1107 8.25839 12.1123C8.53249 9.58161 10.5653 9.26451 10.2242 7.75942C9.81615 5.9524 10.8075 4.36842 12.618 3.97697C15.5508 3.34277 12.8799 6.83543 12.5814 7.58039C12.1063 8.76231 14.1407 9.80009 14.8564 11.5009C15.5797 13.223 15.4731 14.7994 17.6993 15.0876C18.9602 15.25 21.9036 14.8843 22.3269 13.3534C22.5965 12.3794 21.0098 10.6057 23.6213 8.9383C24.2227 8.55445 25.5947 8.25707 25.8231 9.22658C25.9693 9.84257 25.2095 10.9259 24.9064 11.4812C23.2573 14.4944 26.4353 12.478 27.3931 11.6632C28.156 11.0154 28.2549 10.5708 28.7803 9.82436C29.4137 8.92768 30.5055 9.17347 30.4842 10.2735C30.4614 11.4872 28.6326 13.1653 27.8225 14.0498C26.2754 15.74 25.7668 16.1588 26.0789 18.5484C26.3835 20.8804 27.4052 23.5644 28.7118 25.5686C29.4427 26.6914 29.4061 26.3576 30.1584 25.3244C33.353 20.9396 34.0977 15.2242 32.0877 10.1627C29.5691 3.81918 23.2604 -0.202984 16.469 0.00791C9.77047 0.21577 3.72978 4.50345 1.57512 10.8849C-0.512553 17.0676 1.64821 25.5534 7.53966 28.9976L7.54119 28.9991ZM23.9212 26.303C23.9715 26.8901 24.241 30.0429 25.1318 29.8108C26.2921 29.5089 27.355 28.4954 26.9576 27.2148C26.1947 24.7569 23.4507 20.8576 23.9228 26.303H23.9212Z" fill="white"/>
</svg>
