<svg width="20" height="20" viewBox="0 0 20 20" fill="none" xmlns="http://www.w3.org/2000/svg">
<path d="M17.4974 0.0782986C18.1874 -0.121701 18.9274 0.0672987 19.4274 0.578299C19.9274 1.0883 20.1174 1.8283 19.9074 2.5083L15.1374 18.4773C14.9074 19.2273 14.2874 19.7583 13.5074 19.8573C13.4274 19.8683 13.3374 19.8683 13.2574 19.8683C12.5774 19.8683 11.9574 19.5273 11.5974 18.9283L8.52342 13.8783C8.20842 13.3613 8.28842 12.6973 8.71642 12.2693L14.4874 6.5083C14.7774 6.2083 14.7774 5.7373 14.4874 5.4483C14.1974 5.1473 13.7174 5.1473 13.4274 5.4483L7.66642 11.2093C7.23942 11.6373 6.57342 11.7163 6.05742 11.4003L1.02642 8.3283C0.37842 7.9323 -0.11758 6.9843 0.0244202 6.2383C0.16342 5.5063 0.67942 4.9293 1.40742 4.7273L17.4974 0.0782986Z" fill="#0049FF"/>
<path d="M4.24172 15.7801C4.38772 15.9271 4.57972 16.0001 4.77172 16.0001C4.96372 16.0001 5.15572 15.9271 5.30172 15.7801L6.66772 14.4151C6.95972 14.1221 6.95972 13.6471 6.66772 13.3541C6.37472 13.0621 5.89972 13.0621 5.60672 13.3541L4.24172 14.7201C3.94872 15.0131 3.94872 15.4871 4.24172 15.7801Z" fill="#0049FF"/>
<path d="M1.01049 14.8077C0.818492 14.8077 0.626492 14.7347 0.480492 14.5877C0.187492 14.2947 0.187492 13.8207 0.480492 13.5277L1.84549 12.1617C2.13849 11.8697 2.61349 11.8697 2.90649 12.1617C3.19849 12.4547 3.19849 12.9297 2.90649 13.2227L1.54049 14.5877C1.39449 14.7347 1.20249 14.8077 1.01049 14.8077Z" fill="#0049FF"/>
<path d="M5.02541 19.5681C5.17141 19.7151 5.36341 19.7881 5.55541 19.7881C5.74741 19.7881 5.93941 19.7151 6.08541 19.5681L7.45141 18.2031C7.74341 17.9101 7.74341 17.4351 7.45141 17.1421C7.15841 16.8501 6.68341 16.8501 6.39041 17.1421L5.02541 18.5081C4.73241 18.8011 4.73241 19.2751 5.02541 19.5681Z" fill="#0049FF"/>
</svg>
