<svg width="24" height="24" viewBox="0 0 24 24" fill="none" xmlns="http://www.w3.org/2000/svg">
<path d="M19.4974 2.0783C20.1874 1.8783 20.9274 2.0673 21.4274 2.5783C21.9274 3.0883 22.1174 3.8283 21.9074 4.5083L17.1374 20.4773C16.9074 21.2273 16.2874 21.7583 15.5074 21.8573C15.4274 21.8683 15.3374 21.8683 15.2574 21.8683C14.5774 21.8683 13.9574 21.5273 13.5974 20.9283L10.5234 15.8783C10.2084 15.3613 10.2884 14.6973 10.7164 14.2693L16.4874 8.5083C16.7774 8.2083 16.7774 7.7373 16.4874 7.4483C16.1974 7.1473 15.7174 7.1473 15.4274 7.4483L9.66642 13.2093C9.23942 13.6373 8.57342 13.7163 8.05742 13.4003L3.02642 10.3283C2.37842 9.9323 1.88242 8.9843 2.02442 8.2383C2.16342 7.5063 2.67942 6.9293 3.40742 6.7273L19.4974 2.0783Z" fill="#BDC0C7"/>
<path d="M6.24172 17.7801C6.38772 17.9271 6.57972 18.0001 6.77172 18.0001C6.96372 18.0001 7.15572 17.9271 7.30172 17.7801L8.66772 16.4151C8.95972 16.1221 8.95972 15.6471 8.66772 15.3541C8.37472 15.0621 7.89972 15.0621 7.60672 15.3541L6.24172 16.7201C5.94872 17.0131 5.94872 17.4871 6.24172 17.7801Z" fill="#BDC0C7"/>
<path d="M3.01049 16.8077C2.81849 16.8077 2.62649 16.7347 2.48049 16.5877C2.18749 16.2947 2.18749 15.8207 2.48049 15.5277L3.84549 14.1617C4.13849 13.8697 4.61349 13.8697 4.90649 14.1617C5.19849 14.4547 5.19849 14.9297 4.90649 15.2227L3.54049 16.5877C3.39449 16.7347 3.20249 16.8077 3.01049 16.8077Z" fill="#BDC0C7"/>
<path d="M7.02541 21.5681C7.17141 21.7151 7.36341 21.7881 7.55541 21.7881C7.74741 21.7881 7.93941 21.7151 8.08541 21.5681L9.45141 20.2031C9.74341 19.9101 9.74341 19.4351 9.45141 19.1421C9.15841 18.8501 8.68341 18.8501 8.39041 19.1421L7.02541 20.5081C6.73241 20.8011 6.73241 21.2751 7.02541 21.5681Z" fill="#BDC0C7"/>
</svg>
