<svg width="24" height="24" viewBox="0 0 24 24" fill="none" xmlns="http://www.w3.org/2000/svg">
<path fill-rule="evenodd" clip-rule="evenodd" d="M9.16634 6.50079C9.16634 8.24856 7.74856 9.66745 5.99967 9.66745C4.25079 9.66745 2.83301 8.24856 2.83301 6.50079C2.83301 4.7519 4.25079 3.33301 5.99967 3.33301C7.74856 3.33301 9.16634 4.7519 9.16634 6.50079Z" stroke="#AEAFB7" stroke-width="1.5" stroke-linecap="round" stroke-linejoin="round"/>
<path d="M13.5522 6.50087H21.1667" stroke="#AEAFB7" stroke-width="1.5" stroke-linecap="round" stroke-linejoin="round"/>
<path fill-rule="evenodd" clip-rule="evenodd" d="M14.8335 17.5729C14.8335 15.824 16.2513 14.4062 18.0002 14.4062C19.7491 14.4062 21.1668 15.824 21.1668 17.5729C21.1668 19.3218 19.7491 20.7396 18.0002 20.7396C16.2513 20.7396 14.8335 19.3218 14.8335 17.5729Z" stroke="#AEAFB7" stroke-width="1.5" stroke-linecap="round" stroke-linejoin="round"/>
<path d="M10.4479 17.5731H2.8335" stroke="#AEAFB7" stroke-width="1.5" stroke-linecap="round" stroke-linejoin="round"/>
</svg>
