<svg width="30" height="24" viewBox="0 0 30 24" fill="none" xmlns="http://www.w3.org/2000/svg">
<path d="M29.4392 3.22397C29.0641 1.91691 28.1265 0.983286 26.8139 0.609838C22.8759 0.23639 18.938 -0.137058 15 0.049666C11.062 0.049666 7.12409 0.23639 3.18614 0.609838C2.061 0.983286 0.935875 2.10363 0.560832 3.22397C-0.186944 9.05097 -0.186944 14.949 0.560832 20.776C0.935875 22.0831 1.87348 23.0167 3.18614 23.3902C7.12409 23.7636 11.062 24.1371 15 23.9503C18.938 23.9503 22.8759 23.7636 26.8139 23.3902C28.1265 23.0167 29.0641 22.0831 29.4392 20.776C30.1869 14.949 30.1869 9.05097 29.4392 3.22397ZM11.2496 17.6017V6.39828L21.0007 12L11.2496 17.6017Z" fill="#7D828C"/>
</svg>
